<svg width="385" height="430" viewBox="0 0 385 430" fill="none" xmlns="http://www.w3.org/2000/svg">
<g clip-path="url(#clip0)">
<path d="M370.804 50.0584L206.148 1.75525C202.436 0.748251 198.516 0.748251 194.804 1.75525L30.1479 50.0584C26.0937 51.3879 22.5599 53.9221 20.0351 57.3108C17.5103 60.6994 16.1192 64.7751 16.0541 68.9744V249.351C13.6479 286.846 23.6166 307.788 33.5854 319.949C43.5541 332.109 50.0853 335.487 49.7416 346.296C49.3978 357.105 40.8041 362.509 26.0228 380.412C18.4603 389.194 -3.88339 415.542 0.585355 421.284C5.0541 427.026 54.2104 378.385 103.71 390.546C128.804 396.626 191.71 428.04 195.148 429.729L197.21 430.404H200.648C202.417 430.395 204.168 430.051 205.804 429.391C236.575 415.037 266.019 398.084 293.804 378.723C319.585 360.145 340.554 341.229 355.335 322.651C374.929 297.992 384.898 273.334 384.898 249.014V68.9744C384.833 64.7751 383.442 60.6994 380.917 57.3108C378.392 53.9221 374.858 51.3879 370.804 50.0584Z" fill="#3420FF"/>
<path d="M370.804 50.0584L206.148 1.75525C202.436 0.748251 198.516 0.748251 194.804 1.75525L30.1479 50.0584C26.0937 51.3879 22.5599 53.9221 20.0351 57.3108C17.5103 60.6994 16.1192 64.7751 16.0541 68.9744V249.351C13.6479 286.846 23.6166 307.788 33.5854 319.949C43.5541 332.109 50.0853 335.487 49.7416 346.296C49.3978 357.105 40.8041 362.509 26.0228 380.412C18.4603 389.194 -3.88339 415.542 0.585355 421.284C5.0541 427.026 54.2104 378.385 103.71 390.546C128.804 396.626 191.71 428.04 195.148 429.729L197.21 430.404H200.648C202.417 430.395 204.168 430.051 205.804 429.391C236.575 415.037 266.019 398.084 293.804 378.723C319.585 360.145 340.554 341.229 355.335 322.651C374.929 297.992 384.898 273.334 384.898 249.014V68.9744C384.833 64.7751 383.442 60.6994 380.917 57.3108C378.392 53.9221 374.858 51.3879 370.804 50.0584Z" fill="#3420FF"/>
<path d="M324.844 97.2822L201.438 60.8015H196.281L72.8752 97.2822C71.0265 97.8449 69.4029 98.9615 68.2318 100.476C67.0608 101.99 66.4007 103.826 66.344 105.727V239.152C66.344 256.379 73.5627 274.281 87.6564 291.846C100.453 307.216 115.38 320.746 132 332.043C151.908 346.072 173.079 358.283 195.25 368.523C196.42 369.097 197.731 369.332 199.032 369.199C200.329 369.283 201.628 369.051 202.813 368.523C224.939 358.2 246.103 345.993 266.063 332.043C282.584 320.749 297.398 307.216 310.063 291.846C324.156 274.281 331.375 256.379 331.375 239.152V105.727C331.319 103.826 330.658 101.99 329.487 100.476C328.316 98.9615 326.693 97.8449 324.844 97.2822Z" fill="white"/>
</g>
<defs>
<clipPath id="clip0">
<rect width="385" height="430" fill="white"/>
</clipPath>
</defs>
</svg>
